<svg width="512" height="512" viewBox="0 0 512 512" fill="none" xmlns="http://www.w3.org/2000/svg">
<path d="M477.96 0H34.04C15.2402 0 0 15.2402 0 34.04V477.96C0 496.76 15.2402 512 34.04 512H477.96C496.76 512 512 496.76 512 477.96V34.04C512 15.2402 496.76 0 477.96 0Z" fill="#FEFDFF"/>
<path d="M165.04 53.73H34.65V348.05H165.04V53.73Z" fill="url(#paint0_linear)"/>
<path d="M211.64 85V217.63C217.64 218.68 223.49 217.99 229.97 218.15V103.93H425.44V347.7C424.1 349.42 422.39 348.75 419.97 348.41V110.41H237.09V217.56C243.118 218.531 249.262 218.531 255.29 217.56V128.86H400.46V348C398.78 349.11 397.22 349.17 394.92 347.87V135H261.79V217.87H279.79V153.6H375.5V348.39H181.09C180.09 346.51 180.21 344.94 181.46 342.86H368.46C370.84 336.66 369.27 330.81 369.72 324.17H182C180.1 321.86 180.26 320.26 181.08 317.96H369.19V299.19H181.88C179.98 297.05 180.37 295.44 181.18 293.04H368.81C370.37 286.72 369.5 281.11 369.63 274.62H182.89C179.82 272.51 180.6 270.7 180.59 268.14H369.36V249.42H181.36C180.751 248.449 180.445 247.32 180.481 246.175C180.516 245.029 180.892 243.921 181.56 242.99H369.25V224.55H180.91V54.13H475.19V347.66C473.71 349.46 471.95 348.5 469.62 348.89V60.58H187.26V217.58C192.94 218.64 198.56 218 205.15 218.1V78.57H450V347.28C449 348.84 447.54 348.5 445 348.28V85H211.64ZM369.24 217.75V159.65H286.57V217.74L369.24 217.75Z" fill="#303B45"/>
<path d="M165.04 424.89H34.65V430.69H165.04V424.89Z" fill="url(#paint1_linear)"/>
<path d="M475.58 424.68H180.47V429.48H475.58V424.68Z" fill="#303B45"/>
<path d="M34.65 361.15H48.9C54.6867 361.15 58.8367 362.28 61.35 364.54C63.8634 366.8 65.12 370.017 65.12 374.19C65.182 376.767 64.4866 379.305 63.12 381.49C61.7867 383.49 59.63 384.737 56.65 385.23C60.26 386 62.82 387.58 64.35 389.94C65.921 392.451 66.7207 395.369 66.65 398.33C66.65 403.03 65.4867 406.723 63.16 409.41C60.8334 412.097 56.78 413.43 51 413.41H34.65V361.15ZM49.88 383.68C53.4267 383.68 55.9134 382.873 57.34 381.26C58.76 379.64 59.47 377.26 59.47 374.19C59.5509 372.361 59.1691 370.542 58.36 368.9C57.5026 367.449 56.1267 366.377 54.51 365.9C52.0014 365.149 49.3872 364.811 46.77 364.9H40.87V383.62L49.88 383.68ZM49.8 409.76C52.0619 409.871 54.3192 409.464 56.4 408.57C57.9143 407.813 59.0835 406.508 59.67 404.92C60.3739 402.797 60.6923 400.565 60.61 398.33C60.61 391.103 57.06 387.49 49.96 387.49H40.87V409.76H49.8Z" fill="#303B45"/>
<path d="M87.24 365H74.7V361.19H105.7V365H93.46V413.48H87.24V365Z" fill="#303B45"/>
<path d="M116.15 361.15H140.15V365H122.46V384.62H136.87V388.24H122.46V409.8H140.31V413.48H116.15V361.15Z" fill="#303B45"/>
<path d="M153.17 361.15H159.4L172.51 406.53L185.86 361.15H192.08L193.72 413.44H188.56L187.25 371.8L174.55 413.44H170.55L158 371.87L156.69 413.44H151.53L153.17 361.15Z" fill="#303B45"/>
<path d="M208 361.15H232V365H214.28V384.62H228.7V388.24H214.28V409.8H232.14V413.48H208V361.15Z" fill="#303B45"/>
<path d="M266.46 361.15H278V391.15L295 361.15H304.5V413.44H292.7V383L275.42 413.47H266.49L266.46 361.15Z" fill="url(#paint2_linear)"/>
<path d="M318.06 361.15H332.73V382.32H343V361.15H357.74V413.44H343V390.59H332.73V413.44H318.06V361.15Z" fill="url(#paint3_linear)"/>
<path d="M391.29 407.5C389.66 407.63 387.96 407.7 386.21 407.7C383.37 407.737 380.55 407.231 377.9 406.21C375.568 405.336 373.534 403.813 372.04 401.82C370.585 399.782 369.837 397.323 369.91 394.82V379.1C369.889 376.701 370.686 374.365 372.17 372.48C373.816 370.411 375.994 368.828 378.47 367.9C381.434 366.754 384.592 366.193 387.77 366.25C388.77 366.25 389.98 366.25 391.29 366.38V358.11H403.09V366.38C404.4 366.29 405.49 366.25 406.36 366.25C409.593 366.193 412.807 366.753 415.83 367.9C418.331 368.813 420.539 370.385 422.22 372.45C423.707 374.345 424.501 376.691 424.47 379.1V394.91C424.531 397.384 423.783 399.81 422.34 401.82C420.873 403.796 418.886 405.327 416.6 406.24C414.084 407.279 411.382 407.796 408.66 407.76C406.91 407.76 405.06 407.7 403.09 407.57V415.31H391.29V407.5ZM391.29 400.4V373.29C390.694 373.205 390.092 373.162 389.49 373.16C387.739 373.063 386.015 373.627 384.66 374.74C384.064 375.267 383.593 375.92 383.282 376.651C382.97 377.383 382.826 378.175 382.86 378.97V395C382.86 398.66 385.127 400.49 389.66 400.49C390.205 400.514 390.751 400.484 391.29 400.4ZM409.89 399.01C410.445 398.508 410.881 397.889 411.165 397.196C411.448 396.504 411.573 395.757 411.53 395.01V379C411.584 378.206 411.469 377.41 411.193 376.664C410.918 375.918 410.487 375.238 409.93 374.67C408.686 373.62 407.085 373.09 405.46 373.19C404.86 373.19 404.07 373.19 403.09 373.32V400.32C403.66 400.397 404.235 400.44 404.81 400.45C406.623 400.598 408.428 400.083 409.89 399V399.01Z" fill="url(#paint4_linear)"/>
<path d="M440.19 409.86C437.13 406.947 435.603 402.653 435.61 396.98V377.55C435.61 371.87 437.137 367.597 440.19 364.73C443.243 361.863 448.35 360.433 455.51 360.44C462.723 360.44 467.87 361.88 470.95 364.76C474.03 367.64 475.573 371.903 475.58 377.55V397C475.58 402.68 474.037 406.973 470.95 409.88C467.863 412.787 462.717 414.24 455.51 414.24C448.363 414.227 443.257 412.767 440.19 409.86ZM459.61 404.37C460.336 402.988 460.681 401.439 460.61 399.88V374.71C460.689 373.141 460.344 371.579 459.61 370.19C458.95 369.11 457.61 368.57 455.51 368.57C453.41 368.57 452.24 369.12 451.58 370.22C450.854 371.602 450.509 373.151 450.58 374.71V399.88C450.506 401.428 450.815 402.97 451.48 404.37C452.08 405.47 453.42 406.02 455.48 406.02C457.54 406.02 459 405.47 459.61 404.37Z" fill="url(#paint5_linear)"/>
<path d="M34.65 442.45H44.81V444.28H38.13V461.68H34.65V442.45Z" fill="#303B45"/>
<path d="M57.7 442.45H60.65V457.25L69.86 442.45H72.68V461.68H69.68V446.91L60.57 461.68H57.7V442.45Z" fill="#303B45"/>
<path d="M85.37 460C86.5008 459.527 87.4995 458.785 88.28 457.84C89.1729 456.651 89.8065 455.289 90.14 453.84C90.697 451.578 91.0319 449.267 91.14 446.94L91.58 442.45H103.07V459.91H105.84V466.3H103.22L102.93 461.68H88.33L88 466.3H85.37V460ZM99.69 459.9V444.25H94.39L94 447.44C93.8341 449.692 93.5167 451.931 93.05 454.14C92.7838 455.476 92.2718 456.751 91.54 457.9C90.9085 458.786 90.0428 459.478 89.04 459.9H99.69Z" fill="#303B45"/>
<path d="M142.44 444.32H136.44V442.45H151.8V444.32H145.93V461.68H142.44V444.32Z" fill="#303B45"/>
<path d="M164.35 442.45H171C173.48 442.45 175.27 442.883 176.37 443.75C176.89 444.137 177.313 444.639 177.606 445.216C177.9 445.794 178.055 446.432 178.06 447.08C178.076 448.002 177.792 448.904 177.25 449.65C176.562 450.485 175.597 451.046 174.53 451.23C175.768 451.397 176.899 452.021 177.7 452.98C178.371 453.888 178.723 454.992 178.7 456.12C178.752 456.882 178.639 457.647 178.368 458.362C178.097 459.076 177.675 459.724 177.13 460.26C176.13 461.2 174.13 461.68 171.4 461.68H164.34L164.35 442.45ZM171.27 450.57C172.221 450.616 173.157 450.322 173.91 449.74C174.25 449.437 174.517 449.061 174.69 448.64C174.863 448.219 174.939 447.764 174.91 447.31C174.91 445.31 173.5 444.31 170.66 444.31H167.8V450.56L171.27 450.57ZM170.79 459.81C172.001 459.914 173.209 459.584 174.2 458.88C174.579 458.513 174.872 458.065 175.057 457.571C175.242 457.076 175.315 456.546 175.27 456.02C175.337 455.483 175.273 454.938 175.083 454.431C174.893 453.924 174.583 453.471 174.18 453.11C173.234 452.535 172.135 452.263 171.03 452.33H167.78V459.81H170.79Z" fill="#303B45"/>
<path d="M193.6 460.2C192.52 459.007 191.98 457.183 191.98 454.73V449.4C191.98 446.94 192.52 445.117 193.6 443.93C194.68 442.75 196.6 442.15 199.33 442.15C202.06 442.15 204.02 442.75 205.1 443.93C206.18 445.11 206.72 446.93 206.72 449.4V454.73C206.72 457.19 206.18 459.013 205.1 460.2C204.02 461.38 202.1 461.98 199.33 461.98C196.56 461.98 194.68 461.38 193.6 460.2ZM201.88 459.51C202.451 459.097 202.85 458.488 203 457.8C203.182 456.831 203.262 455.846 203.24 454.86V449.27C203.262 448.284 203.182 447.299 203 446.33C202.861 445.647 202.481 445.037 201.93 444.61C201.168 444.135 200.275 443.915 199.38 443.98C198.491 443.91 197.603 444.131 196.85 444.61C196.302 445.038 195.926 445.648 195.79 446.33C195.617 447.3 195.54 448.285 195.56 449.27V454.86C195.54 455.845 195.617 456.83 195.79 457.8C195.924 458.48 196.301 459.088 196.85 459.51C197.598 460 198.489 460.226 199.38 460.15C200.26 460.206 201.135 459.982 201.88 459.51Z" fill="#303B45"/>
<path d="M223.71 461.24C222.648 460.778 221.796 459.936 221.32 458.88C220.753 457.478 220.494 455.971 220.56 454.46V449.6C220.49 448.08 220.76 446.563 221.35 445.16C221.845 444.115 222.711 443.291 223.78 442.85C225.144 442.34 226.595 442.103 228.05 442.15C229.57 442.073 231.087 442.365 232.47 443C233.48 443.548 234.245 444.46 234.61 445.55C235.059 447.023 235.262 448.561 235.21 450.1V451.83H224V455.19C223.869 456.542 224.189 457.899 224.91 459.05C225.304 459.45 225.782 459.756 226.31 459.947C226.838 460.137 227.402 460.207 227.96 460.15C228.954 460.214 229.94 459.931 230.75 459.35C231.122 458.971 231.404 458.515 231.577 458.013C231.75 457.511 231.809 456.977 231.75 456.45V455.12H235.14V456.19C235.189 456.983 235.066 457.778 234.777 458.519C234.489 459.26 234.043 459.929 233.47 460.48C232.377 461.493 230.553 462 228 462C226.533 462.049 225.071 461.79 223.71 461.24ZM231.77 450.44V448.84C231.798 447.923 231.71 447.006 231.51 446.11C231.359 445.475 230.978 444.919 230.44 444.55C229.7 444.126 228.85 443.934 228 444C227.199 443.963 226.4 444.117 225.67 444.45C225.37 444.615 225.106 444.838 224.893 445.105C224.68 445.373 224.523 445.681 224.43 446.01C224.133 447.033 224.001 448.096 224.04 449.16V450.46L231.77 450.44Z" fill="#303B45"/>
<path d="M249.48 442.45H259.64V444.28H253V461.68H249.52L249.48 442.45Z" fill="#303B45"/>
<path d="M273.24 460.2C272.16 459.007 271.62 457.183 271.62 454.73V449.4C271.62 446.94 272.16 445.117 273.24 443.93C274.32 442.75 276.24 442.15 278.97 442.15C281.7 442.15 283.66 442.75 284.74 443.93C285.82 445.11 286.36 446.93 286.36 449.4V454.73C286.36 457.19 285.82 459.013 284.74 460.2C283.66 461.38 281.74 461.98 278.97 461.98C276.2 461.98 274.32 461.38 273.24 460.2ZM281.52 459.51C282.075 459.091 282.456 458.482 282.59 457.8C282.772 456.831 282.852 455.846 282.83 454.86V449.27C282.852 448.284 282.772 447.299 282.59 446.33C282.454 445.646 282.074 445.034 281.52 444.61C280.764 444.149 279.883 443.935 279 444C278.111 443.93 277.223 444.151 276.47 444.63C275.928 445.062 275.556 445.671 275.42 446.35C275.238 447.319 275.158 448.304 275.18 449.29V454.88C275.158 455.866 275.238 456.851 275.42 457.82C275.554 458.497 275.926 459.104 276.47 459.53C277.218 460.02 278.109 460.246 279 460.17C279.889 460.225 280.772 459.993 281.52 459.51Z" fill="#303B45"/>
<path d="M320 442.45H330.17V444.28H323.49V461.68H320V442.45Z" fill="#303B45"/>
<path d="M343.77 460.2C342.69 459.007 342.15 457.183 342.15 454.73V449.4C342.15 446.94 342.69 445.117 343.77 443.93C344.85 442.75 346.77 442.15 349.5 442.15C352.23 442.15 354.19 442.75 355.27 443.93C356.35 445.11 356.89 446.93 356.89 449.4V454.73C356.89 457.19 356.35 459.013 355.27 460.2C354.19 461.38 352.27 461.98 349.5 461.98C346.73 461.98 344.85 461.38 343.77 460.2ZM352.05 459.51C352.605 459.091 352.986 458.482 353.12 457.8C353.302 456.831 353.382 455.846 353.36 454.86V449.27C353.382 448.284 353.302 447.299 353.12 446.33C352.984 445.646 352.604 445.034 352.05 444.61C351.288 444.135 350.395 443.915 349.5 443.98C348.611 443.91 347.723 444.131 346.97 444.61C346.428 445.042 346.056 445.651 345.92 446.33C345.738 447.299 345.658 448.284 345.68 449.27V454.86C345.658 455.846 345.738 456.831 345.92 457.8C346.054 458.477 346.426 459.084 346.97 459.51C347.718 460 348.609 460.226 349.5 460.15C350.397 460.217 351.291 459.993 352.05 459.51Z" fill="#303B45"/>
<path d="M371.25 442.45H374.74V444.05C376.2 442.772 378.09 442.093 380.03 442.15C382.45 442.15 384.1 442.85 384.97 444.23C385.927 445.925 386.385 447.856 386.29 449.8V453.86C386.415 455.964 385.899 458.056 384.81 459.86C383.81 461.24 382.1 461.94 379.65 461.94C377.853 461.904 376.122 461.259 374.74 460.11V468H371.25V442.45ZM382.06 458.62C382.652 457.131 382.904 455.529 382.8 453.93V449.8C382.906 448.289 382.653 446.774 382.06 445.38C381.57 444.49 380.56 444.05 379.06 444.05C377.509 444.091 376.009 444.615 374.77 445.55V458.65C376.041 459.583 377.583 460.075 379.16 460.05C379.729 460.113 380.305 460.013 380.819 459.759C381.333 459.506 381.764 459.11 382.06 458.62Z" fill="#303B45"/>
<path d="M401.8 460.2C400.707 459.007 400.163 457.183 400.17 454.73V449.4C400.17 446.94 400.713 445.117 401.8 443.93C402.88 442.75 404.8 442.15 407.52 442.15C410.24 442.15 412.22 442.75 413.3 443.93C414.38 445.11 414.92 446.93 414.92 449.4V454.73C414.92 457.19 414.38 459.013 413.3 460.2C412.22 461.38 410.3 461.98 407.52 461.98C404.74 461.98 402.88 461.38 401.8 460.2ZM410.08 459.51C410.632 459.089 411.013 458.481 411.15 457.8C411.332 456.831 411.412 455.846 411.39 454.86V449.27C411.412 448.284 411.332 447.299 411.15 446.33C411.011 445.647 410.631 445.037 410.08 444.61C409.315 444.134 408.418 443.913 407.52 443.98C406.631 443.911 405.743 444.132 404.99 444.61C404.462 445.046 404.108 445.656 403.99 446.33C403.804 447.299 403.72 448.284 403.74 449.27V454.86C403.72 455.846 403.804 456.831 403.99 457.8C404.106 458.472 404.461 459.08 404.99 459.51C405.74 459.996 406.629 460.221 407.52 460.15C408.42 460.219 409.318 459.994 410.08 459.51Z" fill="#303B45"/>
<path d="M426.94 460C428.071 459.527 429.069 458.785 429.85 457.84C430.743 456.65 431.379 455.288 431.72 453.84C432.272 451.577 432.607 449.267 432.72 446.94L433.14 442.45H444.65V459.91H447.41V466.3H444.79L444.5 461.68H429.9L429.57 466.3H426.94V460ZM441.26 459.9V444.25H436L435.57 447.44C435.404 449.692 435.087 451.931 434.62 454.14C434.364 455.479 433.851 456.756 433.11 457.9C432.478 458.786 431.613 459.478 430.61 459.9H441.26Z" fill="#303B45"/>
<path d="M461.87 460.74C461.394 460.386 461.008 459.924 460.743 459.392C460.479 458.86 460.345 458.274 460.35 457.68C460.309 456.543 460.69 455.432 461.42 454.56C462.352 453.592 463.485 452.841 464.74 452.36C466.23 451.72 468.48 450.93 471.47 450V448.64C471.498 447.7 471.394 446.761 471.16 445.85C471.008 445.253 470.627 444.739 470.1 444.42C469.45 444.096 468.725 443.951 468 444C465.42 444 464.14 445.1 464.14 447.29V447.96H460.7C460.647 447.143 460.783 446.325 461.097 445.569C461.411 444.813 461.894 444.139 462.51 443.6C463.69 442.667 465.583 442.2 468.19 442.2C470.61 442.2 472.33 442.71 473.37 443.73C474.41 444.75 474.92 446.36 474.92 448.56V457.9C474.92 458.52 474.92 459.23 474.99 460.03C475.013 460.6 475.069 461.167 475.16 461.73H472.05L471.53 459.07C471.055 459.973 470.315 460.709 469.41 461.18C468.316 461.765 467.09 462.058 465.85 462.03C464.414 462.072 463.008 461.617 461.87 460.74ZM469.58 459.23C470.309 458.822 470.951 458.275 471.47 457.62V451.62C469.303 452.42 467.733 453.04 466.76 453.48C465.94 453.825 465.196 454.328 464.57 454.96C464.064 455.547 463.799 456.305 463.83 457.08C463.8 457.479 463.864 457.88 464.017 458.25C464.17 458.62 464.407 458.948 464.71 459.21C465.367 459.691 466.167 459.934 466.98 459.9C467.892 459.918 468.791 459.686 469.58 459.23Z" fill="#303B45"/>
<defs>
<linearGradient id="paint0_linear" x1="99.84" y1="348.05" x2="99.84" y2="53.73" gradientUnits="userSpaceOnUse">
<stop stop-color="#83007E"/>
<stop offset="1" stop-color="#4F008C"/>
</linearGradient>
<linearGradient id="paint1_linear" x1="13052.8" y1="2922.83" x2="13052.8" y2="2889.25" gradientUnits="userSpaceOnUse">
<stop stop-color="#83007E"/>
<stop offset="1" stop-color="#4F008C"/>
</linearGradient>
<linearGradient id="paint2_linear" x1="11125.4" y1="21992.3" x2="11125.4" y2="19256.5" gradientUnits="userSpaceOnUse">
<stop stop-color="#83007E"/>
<stop offset="1" stop-color="#4F008C"/>
</linearGradient>
<linearGradient id="paint3_linear" x1="13725.5" y1="21979.9" x2="13725.5" y2="19245.7" gradientUnits="userSpaceOnUse">
<stop stop-color="#83007E"/>
<stop offset="1" stop-color="#4F008C"/>
</linearGradient>
<linearGradient id="paint4_linear" x1="22043.9" y1="24113.8" x2="22043.9" y2="20842" gradientUnits="userSpaceOnUse">
<stop stop-color="#83007E"/>
<stop offset="1" stop-color="#4F008C"/>
</linearGradient>
<linearGradient id="paint5_linear" x1="18645.6" y1="22645.5" x2="18645.6" y2="19752.1" gradientUnits="userSpaceOnUse">
<stop stop-color="#83007E"/>
<stop offset="1" stop-color="#4F008C"/>
</linearGradient>
</defs>
</svg>
